<?xml version="1.0" encoding="utf-8"?>
<!-- Generator: Adobe Illustrator 18.0.0, SVG Export Plug-In . SVG Version: 6.00 Build 0)  -->
<!DOCTYPE svg PUBLIC "-//W3C//DTD SVG 1.1//EN" "http://www.w3.org/Graphics/SVG/1.1/DTD/svg11.dtd">
<svg version="1.1" id="Capa_1" xmlns="http://www.w3.org/2000/svg" xmlns:xlink="http://www.w3.org/1999/xlink" x="0px" y="0px"
	 viewBox="0 0 70 96.7" enable-background="new 0 0 70 96.7" xml:space="preserve">
<path fill="#7CBC44" d="M68.2,24.1l-45-23.2c-6.2-3.2-18.3,3-21.8,8.5C-0.1,11.9,0,13.7,0,14.7l0.6,52.4c0,1.1,1.4,2.6,2.6,3.3
	c2.5,1.5,40.3,25.1,41.4,25.8c0.6,0.4,1.3,0.5,1.9,0.5c0.6,0,1.1-0.1,1.7-0.4c1.1-0.6,1.8-1.6,1.8-2.8v-55c0-1.1-0.7-2.2-1.8-2.8
	L7.3,12.9C7.8,12,9.6,10.1,13,8.4c3.5-1.8,6.2-1.1,6.8-0.9c0,0,39.2,21,40.4,21.6c1.2,0.6,1.2,0.7,1.2,1.8c0,1.1,0,52.2,0,52.2
	c0,2.6,2.6,3.7,4.6,3.7c1.9,0,4-1.9,4-3.7V26.9C70,25.7,69.3,24.7,68.2,24.1z"/>
</svg>
